<svg id="Layer_1" data-name="Layer 1" xmlns="http://www.w3.org/2000/svg" viewBox="0 0 304.3 187.6"><defs><style>.cls-1,.cls-2,.cls-3,.cls-4,.cls-5{fill:none;}.cls-1,.cls-2,.cls-3,.cls-4{stroke:#ee4036;}.cls-1{stroke-linejoin:round;}.cls-1,.cls-2{stroke-width:2.3px;}.cls-2,.cls-4,.cls-5{stroke-linecap:round;}.cls-2,.cls-3,.cls-4,.cls-5{stroke-miterlimit:10;}.cls-3{stroke-width:0.58px;}.cls-4,.cls-5{stroke-width:1.99px;}.cls-5{stroke:#231f20;}.cls-6{fill:#231f20;}.cls-7{fill:#ee4036;}</style></defs><title>blacklogo3</title><path class="cls-1" d="M56.1,130.3s23.4-8.3,39.1-51.4c0,0,12.4,50.3,39.8,49.9,35.1-.6,47-49.9,47-49.9s19.7,50.3,40.9,50.3"/><line class="cls-2" x1="95.3" y1="81.1" x2="95.3" y2="147.6"/><line class="cls-2" x1="182.3" y1="80.9" x2="182.3" y2="147.6"/><line class="cls-3" x1="71.6" y1="119.7" x2="71.6" y2="129.3"/><line class="cls-3" x1="83.4" y1="104.1" x2="83.4" y2="129.3"/><line class="cls-3" x1="107.3" y1="108.3" x2="107.3" y2="129.3"/><line class="cls-3" x1="118.5" y1="122.3" x2="118.5" y2="129.3"/><line class="cls-3" x1="158.6" y1="129.2" x2="158.6" y2="120.3"/><line class="cls-3" x1="170" y1="106" x2="170" y2="129.1"/><line class="cls-3" x1="193.2" y1="101.8" x2="193.2" y2="129.2"/><path class="cls-4" d="M50.3,130.4c30,0,162.9-.3,179.6-1.3"/><line class="cls-3" x1="206" y1="119.7" x2="206" y2="129.1"/><path class="cls-5" d="M179.9,63.7A44,44,0,0,0,96.8,35.3,31.1,31.1,0,0,0,53.1,59.9a35.5,35.5,0,1,0-6.7,70.4h3.8"/><path class="cls-6" d="M97.6,160.2H93.2V147.5a5.6,5.6,0,0,0-1-3.6,3.7,3.7,0,0,0-3.1-1.2,4.9,4.9,0,0,0-4.1,1.7q-1.3,1.7-1.3,5.5v10.3H79.4V139.5h3.5l0.6,2.7h0.2a6.1,6.1,0,0,1,2.7-2.3,8.9,8.9,0,0,1,3.8-.8q7.5,0,7.5,7.6v13.5Z"/><path class="cls-6" d="M122.2,149.8q0,5.1-2.6,7.9a9.3,9.3,0,0,1-7.3,2.9,10,10,0,0,1-5.1-1.3,8.7,8.7,0,0,1-3.4-3.8,12.8,12.8,0,0,1-1.2-5.7q0-5,2.6-7.9a9.4,9.4,0,0,1,7.3-2.8,9.1,9.1,0,0,1,7.1,2.9A11.2,11.2,0,0,1,122.2,149.8Zm-15.1,0q0,7.2,5.3,7.2t5.3-7.2q0-7.1-5.3-7.1a4.5,4.5,0,0,0-4,1.8A9.4,9.4,0,0,0,107.1,149.8Z"/><path class="cls-6" d="M144.3,160.2l-2.7-9.7q-0.5-1.5-1.8-7.2h-0.2q-1.1,5.1-1.7,7.2l-2.8,9.6h-4.9l-5.8-20.8H129l2.6,10.2q0.9,3.8,1.3,6.5H133q0.2-1.4.6-3.1t0.7-2.7l3.2-10.9h4.8l3.1,10.9q0.3,0.9.7,2.8a21.7,21.7,0,0,1,.5,2.9h0.1a57.8,57.8,0,0,1,1.3-6.5l2.7-10.2h4.4l-5.9,20.8h-5Z"/><path class="cls-6" d="M167.7,160.6a10,10,0,0,1-7.6-2.8,10.7,10.7,0,0,1-2.7-7.8q0-5.1,2.5-8a8.8,8.8,0,0,1,7-2.9,8.6,8.6,0,0,1,6.5,2.5,9.5,9.5,0,0,1,2.4,6.9v2.4H162a6.8,6.8,0,0,0,1.6,4.6,5.7,5.7,0,0,0,4.3,1.6,16,16,0,0,0,3.4-.3,17.9,17.9,0,0,0,3.4-1.2v3.6a13.6,13.6,0,0,1-3.3,1.1A20.1,20.1,0,0,1,167.7,160.6Zm-0.8-18.2a4.4,4.4,0,0,0-3.4,1.3,6.4,6.4,0,0,0-1.5,3.9h9.4a5.7,5.7,0,0,0-1.2-3.9A4.2,4.2,0,0,0,166.9,142.4Z"/><path class="cls-6" d="M185.2,160.2h-4.4V131h4.4v29.2Z"/><path class="cls-6" d="M195.9,160.2h-4.4V131h4.4v29.2Z"/><path class="cls-7" d="M212.8,160.6a7.3,7.3,0,0,1-6.1-2.8h-0.3q0.3,2.6.3,3.2v8.5h-4.4v-30h3.6l0.6,2.8h0.2a6.9,6.9,0,0,1,6.2-3.2,7.2,7.2,0,0,1,6.1,2.8q2.2,2.8,2.2,7.9t-2.2,7.9A7.3,7.3,0,0,1,212.8,160.6Zm-1.1-17.9a4.6,4.6,0,0,0-3.8,1.5,8,8,0,0,0-1.2,4.9v0.7q0,3.8,1.2,5.5a4.5,4.5,0,0,0,3.9,1.7,4,4,0,0,0,3.5-1.9,9.7,9.7,0,0,0,1.2-5.3,9.4,9.4,0,0,0-1.2-5.3A4.1,4.1,0,0,0,211.7,142.7Z"/><path class="cls-7" d="M244.6,149.8q0,5.1-2.6,7.9a9.3,9.3,0,0,1-7.3,2.9,10,10,0,0,1-5.1-1.3,8.7,8.7,0,0,1-3.4-3.8,12.8,12.8,0,0,1-1.2-5.7q0-5,2.6-7.9a9.4,9.4,0,0,1,7.3-2.8A9.1,9.1,0,0,1,242,142,11.2,11.2,0,0,1,244.6,149.8Zm-15.1,0q0,7.2,5.3,7.2t5.3-7.2q0-7.1-5.3-7.1a4.5,4.5,0,0,0-4,1.8A9.4,9.4,0,0,0,229.5,149.8Z"/><path class="cls-7" d="M249.4,134a2.4,2.4,0,0,1,.6-1.8,2.5,2.5,0,0,1,1.8-.6,2.5,2.5,0,0,1,1.8.6,2.4,2.4,0,0,1,.6,1.8,2.4,2.4,0,0,1-.6,1.8,2.5,2.5,0,0,1-1.8.6,2.5,2.5,0,0,1-1.8-.6A2.4,2.4,0,0,1,249.4,134Zm4.7,26.3h-4.4V139.5h4.4v20.8Z"/><path class="cls-7" d="M278.7,160.2h-4.4V147.5a5.6,5.6,0,0,0-1-3.6,3.7,3.7,0,0,0-3.1-1.2,4.9,4.9,0,0,0-4.1,1.7q-1.3,1.7-1.3,5.5v10.3h-4.4V139.5h3.5l0.6,2.7h0.2a6.1,6.1,0,0,1,2.7-2.3,8.9,8.9,0,0,1,3.8-.8q7.5,0,7.5,7.6v13.5Z"/><path class="cls-7" d="M292.5,157a10.7,10.7,0,0,0,3.2-.5v3.3l-1.9.5-2.4.2q-6.3,0-6.3-6.6V142.8h-2.8v-2l3-1.6,1.5-4.4h2.7v4.6h5.9v3.3h-5.9v11.1a3.1,3.1,0,0,0,.8,2.4A2.9,2.9,0,0,0,292.5,157Z"/></svg>